<?xml version="1.0" standalone="no"?>
<!DOCTYPE svg PUBLIC "-//W3C//DTD SVG 20010904//EN"
 "http://www.w3.org/TR/2001/REC-SVG-20010904/DTD/svg10.dtd">
<svg version="1.0" xmlns="http://www.w3.org/2000/svg"
 width="94px" height="69px" viewBox="0 0 297.000000 219.000000"
 preserveAspectRatio="xMidYMid meet">

<g transform="translate(0.000000,219.000000) scale(0.100000,-0.100000)"
fill="#9a9b9b" stroke="none">
<path fill="#0c2244" d="M1237 2172 c-3 -4 -31 -77 -61 -161 -42 -114 -53 -157 -46 -171 12
-23 38 -32 58 -21 24 13 132 310 122 336 -7 21 -63 34 -73 17z"/>
<path fill="#0c2244" d="M632 2098 c-18 -18 -16 -27 45 -189 57 -151 74 -176 111 -162 36 14
32 40 -24 190 -31 81 -61 154 -66 161 -13 15 -50 16 -66 0z"/>
<path fill="#0c2244" d="M141 1754 c-26 -18 -27 -46 -3 -66 9 -8 77 -48 150 -88 118 -63 137
-71 158 -61 29 13 32 51 7 73 -17 14 -237 134 -274 150 -9 3 -26 0 -38 -8z"/>
<path d="M1020 1645 c-273 -48 -491 -211 -609 -454 -21 -44 -46 -110 -56 -148
-9 -37 -19 -74 -21 -81 -3 -10 -11 -9 -35 4 -51 26 -140 21 -194 -10 -55 -33
-96 -100 -103 -167 -4 -39 1 -60 23 -104 37 -78 85 -108 176 -113 60 -4 74 -1
113 22 l44 25 6 -32 c12 -59 94 -211 150 -279 177 -213 466 -332 723 -298 182
24 342 97 469 213 154 142 233 294 268 514 18 109 38 151 107 227 100 109 229
184 433 251 112 37 244 70 321 80 93 13 124 24 130 48 3 12 4 83 3 157 -3 132
-3 135 -28 147 -37 19 -1813 17 -1920 -2z m281 -99 c197 -42 376 -170 478
-344 115 -195 133 -453 45 -655 -93 -210 -250 -349 -474 -418 -97 -30 -280
-32 -378 -5 -226 62 -413 225 -496 431 -166 415 68 872 504 985 90 23 228 25
321 6z m579 -89 c0 -144 3 -147 129 -147 62 0 101 4 109 12 8 8 12 50 12 125
l0 113 370 0 370 0 0 -80 c0 -74 -1 -80 -22 -84 -13 -3 -59 -13 -103 -22 -339
-70 -569 -177 -728 -339 l-53 -53 -18 68 c-48 188 -176 362 -348 476 l-53 34
168 0 167 0 0 -103z m-1610 -584 c41 -28 49 -45 50 -99 0 -43 -4 -54 -31 -80
-25 -24 -39 -29 -79 -29 -57 0 -94 28 -110 83 -26 95 90 180 170 125z"/>
<path fill="#0c2244" d="M1012 1386 c-145 -36 -298 -158 -366 -294 -51 -101 -69 -187 -63
-292 20 -322 290 -560 610 -537 150 10 270 69 377 183 68 73 111 150 135 245
23 86 16 240 -14 323 -66 185 -221 328 -402 371 -77 18 -204 18 -277 1z m269
-94 c210 -58 348 -244 349 -467 1 -286 -266 -512 -551 -468 -260 41 -445 297
-400 553 51 281 329 458 602 382z"/>
<path d="M1123 1199 c-7 -7 -13 -23 -13 -35 0 -27 16 -40 60 -48 56 -10 134
-51 175 -91 40 -40 85 -126 85 -162 0 -62 46 -97 81 -62 16 16 18 27 13 57
-26 143 -110 253 -237 313 -74 34 -146 47 -164 28z"/>
</g>
</svg>
