<?xml version="1.0" standalone="no"?>
<!DOCTYPE svg PUBLIC "-//W3C//DTD SVG 20010904//EN"
 "http://www.w3.org/TR/2001/REC-SVG-20010904/DTD/svg10.dtd">
<svg version="1.0" xmlns="http://www.w3.org/2000/svg"
 width="21px" height="21px" viewBox="0 0 333.000000 336.000000"
 preserveAspectRatio="xMidYMid meet">
<metadata>
Created by potrace 1.14, written by Peter Selinger 2001-2017
</metadata>
<g transform="translate(0.000000,336.000000) scale(0.100000,-0.100000)"
fill="#f0f0f0" stroke="none">
<path d="M1603 3349 c-73 -12 -151 -44 -224 -90 -45 -29 -254 -230 -702 -677
-351 -351 -645 -649 -653 -664 -8 -15 -14 -49 -14 -76 0 -64 30 -110 93 -141
39 -19 56 -22 95 -16 46 7 54 13 692 650 439 437 659 650 690 666 37 20 60 24
130 24 73 0 92 -4 135 -27 29 -15 264 -218 555 -479 419 -376 505 -457 505
-478 l0 -26 -1070 -5 c-730 -4 -1080 -9 -1100 -16 -121 -44 -211 -121 -259
-224 l-31 -65 -3 -655 c-3 -587 -1 -662 14 -718 41 -157 180 -287 342 -321 75
-16 1710 -15 1784 0 172 37 316 186 348 360 7 35 9 258 8 597 -3 531 -3 541
-24 569 -57 76 -154 97 -227 48 -75 -51 -71 -26 -77 -637 l-5 -548 -33 -32
-32 -33 -840 -3 c-928 -3 -881 -6 -917 61 -17 29 -18 80 -21 607 -2 316 0 589
3 606 3 17 12 39 19 50 14 19 44 19 1163 24 l1148 5 50 23 c63 29 119 83 153
147 22 42 26 63 26 130 0 72 -3 86 -33 143 -31 58 -84 107 -590 560 -305 273
-575 514 -600 535 -126 105 -324 155 -498 126z"/>
</g>
</svg>
