<?xml version="1.0" standalone="no"?>
<!DOCTYPE svg PUBLIC "-//W3C//DTD SVG 20010904//EN"
 "http://www.w3.org/TR/2001/REC-SVG-20010904/DTD/svg10.dtd">
<svg version="1.0" xmlns="http://www.w3.org/2000/svg"
 width="67px" height="69px" viewBox="0 0 233.000000 239.000000"
 preserveAspectRatio="xMidYMid meet">

<g transform="translate(0.000000,239.000000) scale(0.100000,-0.100000)"
fill="#999a9a" stroke="none">
<path d="M383 2376 c-122 -30 -246 -121 -311 -228 -18 -31 -42 -93 -54 -142
-20 -80 -21 -96 -10 -170 40 -275 292 -468 558 -426 133 21 274 110 341 215
l28 45 63 0 c38 0 75 6 93 16 31 15 59 66 59 104 0 34 38 25 53 -12 8 -18 20
-38 28 -45 25 -21 160 -65 184 -60 15 2 22 0 19 -8 -12 -30 60 -132 122 -175
18 -12 20 -19 12 -40 -12 -32 -1 -145 18 -186 8 -17 31 -40 50 -50 18 -10 34
-23 34 -29 0 -5 3 -19 6 -31 4 -17 -1 -22 -33 -32 -74 -22 -106 -80 -91 -164
l9 -47 -69 -68 c-198 -198 -202 -489 -10 -689 154 -161 381 -199 581 -98 71
36 177 145 210 216 61 129 70 259 26 385 -47 136 -155 247 -292 298 -36 14
-49 24 -53 44 -19 83 -27 102 -56 126 -29 24 -38 27 -90 23 l-58 -4 0 30 c0
20 10 41 33 64 27 28 32 40 32 80 -1 93 -14 141 -50 176 -23 23 -30 37 -24 47
5 8 9 33 9 56 0 36 -7 50 -55 107 -55 64 -105 94 -144 83 -12 -3 -17 3 -19 21
-4 50 -35 86 -97 112 -83 34 -164 34 -199 1 -14 -14 -26 -31 -26 -39 0 -9 -6
-12 -16 -8 -9 3 -22 6 -29 6 -9 0 -13 14 -12 48 3 89 -37 131 -134 139 l-59 6
-31 57 c-102 192 -335 297 -546 246z m250 -75 c110 -38 194 -115 248 -227 16
-34 36 -65 45 -68 9 -3 42 -6 74 -6 75 0 80 -9 80 -130 0 -127 -3 -130 -100
-130 -88 0 -78 6 -141 -92 -48 -75 -153 -143 -258 -168 -277 -65 -551 198
-503 484 26 159 133 285 286 338 71 24 196 24 269 -1z m776 -443 c39 -19 46
-28 49 -55 3 -25 -2 -35 -23 -49 -22 -14 -31 -15 -69 -4 -72 20 -106 45 -106
79 0 65 54 76 149 29z m222 -187 c50 -49 58 -75 39 -112 -7 -13 -21 -19 -45
-19 -28 0 -40 8 -74 48 -60 69 -54 131 13 132 10 0 41 -22 67 -49z m82 -223
c11 -8 21 -37 27 -76 13 -79 3 -102 -45 -102 -41 0 -50 13 -60 93 -5 48 -4 62
11 78 20 22 43 24 67 7z m146 -382 c6 -7 16 -40 23 -72 6 -32 15 -64 20 -70 5
-7 32 -20 61 -29 363 -117 400 -614 59 -783 -74 -36 -79 -37 -186 -37 -104 0
-115 2 -176 31 -95 46 -153 101 -197 192 -37 75 -38 78 -38 192 0 110 2 119
32 181 33 66 77 119 145 174 l37 30 -11 78 c-8 53 -9 80 -2 87 12 12 133 38
185 39 20 1 42 -5 48 -13z"/>
<path fill="#0c2244" d="M349 2257 c-99 -42 -156 -94 -206 -190 -26 -48 -28 -61 -28 -162 0
-104 2 -114 32 -176 40 -81 102 -140 191 -182 156 -73 349 -22 458 120 56 73
77 144 72 248 -5 110 -36 182 -108 254 -76 76 -144 105 -260 109 -82 2 -103
-1 -151 -21z m287 -77 c237 -116 228 -456 -15 -568 -44 -21 -72 -26 -131 -27
-151 0 -263 84 -305 230 -32 107 -2 221 78 303 102 105 239 128 373 62z"/>
<path fill="#0c2244" d="M1730 854 c-106 -29 -194 -103 -246 -210 -26 -53 -29 -69 -29 -159 0
-88 3 -107 27 -158 35 -73 116 -155 193 -193 54 -26 70 -29 155 -29 86 0 101
3 162 32 240 113 299 426 116 612 -104 104 -239 142 -378 105z m214 -70 c64
-22 147 -100 177 -166 32 -72 33 -192 2 -259 -29 -64 -87 -125 -147 -157 -45
-24 -62 -27 -146 -27 -87 0 -100 3 -149 30 -77 43 -127 104 -153 188 -51 170
32 333 201 393 50 18 158 17 215 -2z"/>
</g>
</svg>
