<?xml version="1.0" standalone="no"?>
<!DOCTYPE svg PUBLIC "-//W3C//DTD SVG 20010904//EN"
 "http://www.w3.org/TR/2001/REC-SVG-20010904/DTD/svg10.dtd">
<svg version="1.0" xmlns="http://www.w3.org/2000/svg"
 width="87px" height="69px" viewBox="0 0 305.000000 243.000000"
 preserveAspectRatio="xMidYMid meet">

<g transform="translate(0.000000,243.000000) scale(0.100000,-0.100000)"
fill="#9a9b9b" stroke="none">
<path fill="#152a4b" d="M2042 2326 c-51 -51 -92 -97 -92 -102 0 -13 713 -724 727 -724 23 0
329 279 346 316 34 71 14 161 -53 237 -36 41 -64 47 -80 17 -8 -16 -4 -27 24
-64 47 -62 62 -109 46 -147 -7 -16 -73 -84 -147 -151 l-135 -121 -316 316
-316 316 72 75 c73 75 82 92 60 114 -24 24 -46 11 -136 -82z"/>
<path fill="#152a4b"  d="M872 2248 c-22 -22 -13 -39 60 -114 l72 -75 -316 -316 -316 -316
-135 122 c-74 66 -140 134 -147 150 -16 38 -1 85 46 147 28 37 32 48 24 64
-16 30 -44 24 -80 -17 -67 -76 -87 -166 -53 -237 17 -37 323 -316 346 -316 14
0 727 711 727 724 0 16 -184 196 -200 196 -9 0 -21 -5 -28 -12z"/>
<path d="M1840 2015 c-83 -84 -108 -95 -210 -95 -109 -1 -127 -14 -408 -293
-140 -139 -260 -265 -268 -280 -19 -35 -11 -62 30 -106 64 -68 153 -88 234
-51 25 11 90 66 155 128 l112 109 39 -28 c146 -108 401 -86 539 46 29 28 33
45 15 63 -19 19 -40 14 -86 -23 -131 -103 -320 -103 -455 0 -25 19 -52 35 -59
35 -7 0 -65 -52 -128 -115 -63 -64 -130 -125 -148 -137 -46 -29 -113 -21 -153
18 l-30 28 248 248 c136 136 261 254 278 262 16 7 70 17 119 20 112 9 140 24
234 119 57 57 73 80 70 98 -2 17 -10 25 -28 27 -20 2 -41 -13 -100 -73z"/>
<path d="M1050 1900 c-14 -27 -4 -43 68 -113 62 -58 79 -66 100 -45 23 23 12
44 -56 111 -71 70 -94 80 -112 47z"/>
<path d="M2448 1560 c-37 -29 -74 -122 -108 -268 -37 -166 -49 -194 -110 -258
-55 -58 -58 -65 -34 -88 22 -23 29 -21 75 21 72 65 103 134 144 318 28 125 39
156 72 205 28 42 29 66 4 79 -14 8 -25 6 -43 -9z"/>
<path d="M549 1394 c-10 -12 -10 -19 -1 -32 36 -51 54 -103 78 -223 29 -147
56 -232 98 -303 15 -26 188 -206 407 -423 412 -411 421 -418 499 -394 50 15
89 47 106 86 13 31 15 32 63 27 29 -2 64 1 81 8 34 14 90 73 90 95 0 12 10 14
53 9 142 -15 232 127 154 245 l-26 39 37 23 c20 13 45 39 55 56 23 39 24 110
4 149 -9 16 -119 132 -245 257 -210 209 -232 228 -251 218 -45 -24 -27 -49
209 -286 156 -157 230 -238 230 -253 0 -52 -40 -92 -92 -92 -15 0 -95 73 -254
231 -190 189 -236 230 -255 227 -16 -2 -25 -11 -27 -27 -3 -20 46 -73 282
-310 267 -267 286 -289 286 -322 0 -46 -34 -79 -81 -79 -31 0 -55 21 -304 270
-178 178 -277 270 -290 270 -22 0 -45 -17 -45 -34 0 -5 110 -121 245 -256 225
-227 245 -249 245 -281 0 -68 -59 -106 -117 -75 -15 8 -125 112 -243 230 -219
220 -250 243 -265 195 -6 -18 24 -53 188 -218 108 -108 201 -208 206 -223 19
-52 -21 -108 -78 -108 -33 0 -58 23 -409 373 -356 355 -375 376 -412 452 -30
59 -46 114 -65 210 -31 160 -49 217 -82 255 -28 33 -54 38 -74 14z"/>
<path d="M596 765 c-19 -19 -30 -76 -21 -107 12 -41 55 -95 91 -114 34 -18 35
-20 29 -64 -5 -35 -1 -54 17 -89 30 -58 63 -81 128 -89 48 -6 54 -10 61 -36
16 -59 81 -106 148 -106 35 0 40 -3 46 -28 7 -35 51 -84 95 -107 68 -35 175
-2 150 46 -8 14 -21 17 -66 16 -52 -2 -58 0 -86 32 -27 30 -29 37 -23 81 6 41
4 50 -12 59 -15 7 -26 5 -49 -10 -40 -26 -80 -24 -109 6 -29 28 -33 79 -10
109 19 25 19 50 0 66 -13 11 -20 10 -43 -8 -55 -45 -81 -54 -114 -43 -65 23
-78 88 -28 144 51 59 35 89 -41 80 -44 -5 -50 -3 -80 26 -29 29 -31 36 -25 78
9 65 -21 95 -58 58z"/>
</g>
</svg>
