<?xml version="1.0" standalone="no"?>
<!DOCTYPE svg PUBLIC "-//W3C//DTD SVG 20010904//EN"
 "http://www.w3.org/TR/2001/REC-SVG-20010904/DTD/svg10.dtd">
<svg version="1.0" xmlns="http://www.w3.org/2000/svg"
 width="76px" height="69px" viewBox="0 0 305.000000 278.000000"
 preserveAspectRatio="xMidYMid meet">

<g transform="translate(0.000000,278.000000) scale(0.100000,-0.100000)"
fill="#9a9b9b" stroke="none">
<path d="M1435 2737 c-44 -24 -201 -108 -350 -187 -272 -144 -362 -191 -490
-260 -38 -21 -115 -61 -170 -90 -394 -208 -425 -225 -425 -241 0 -5 657 -9
1526 -9 1199 0 1525 3 1522 12 -5 15 -52 42 -233 137 -77 41 -171 91 -210 111
-38 21 -216 115 -395 210 -179 95 -356 189 -395 210 -38 20 -118 63 -176 94
-58 31 -110 56 -115 56 -5 0 -45 -20 -89 -43z m121 -106 c8 -8 165 -92 464
-249 58 -30 128 -67 155 -82 28 -15 100 -53 160 -85 132 -69 213 -114 240
-132 16 -11 -157 -13 -1050 -13 -906 0 -1066 2 -1050 14 11 7 65 37 120 66 55
29 152 81 215 115 63 34 174 93 245 131 72 37 204 107 295 156 164 87 187 96
206 79z"/>
<path d="M420 1780 l0 -60 60 0 60 0 0 -560 0 -560 -60 0 -60 0 0 -60 0 -60
180 0 180 0 0 60 0 60 -60 0 -60 0 0 560 0 560 60 0 60 0 0 60 0 60 -180 0
-180 0 0 -60z"/>
<path d="M1040 1780 l0 -59 58 -3 57 -3 3 -557 2 -558 -60 0 -60 0 0 -60 0
-60 175 0 175 0 0 60 0 60 -55 0 -55 0 0 560 0 560 55 0 55 0 0 60 0 60 -175
0 -175 0 0 -60z"/>
<path d="M1660 1780 l0 -60 55 0 55 0 0 -560 0 -560 -55 0 -55 0 0 -60 0 -60
175 0 175 0 0 60 0 60 -60 0 -60 0 2 558 3 557 58 3 57 3 0 59 0 60 -175 0
-175 0 0 -60z"/>
<path d="M2270 1780 l0 -60 60 0 60 0 0 -560 0 -560 -60 0 -60 0 0 -60 0 -60
180 0 180 0 0 60 0 60 -60 0 -60 0 0 560 0 560 60 0 60 0 0 60 0 60 -180 0
-180 0 0 -60z"/>
<path d="M350 300 l0 -60 1180 0 1180 0 0 60 0 60 -1180 0 -1180 0 0 -60z"/>
<path d="M200 60 l0 -60 1325 0 1325 0 0 60 0 60 -1325 0 -1325 0 0 -60z"/>
</g>
</svg>
