<?xml version="1.0" standalone="no"?>
<!DOCTYPE svg PUBLIC "-//W3C//DTD SVG 20010904//EN"
 "http://www.w3.org/TR/2001/REC-SVG-20010904/DTD/svg10.dtd">
<svg version="1.0" xmlns="http://www.w3.org/2000/svg"
 width="84px" height="71px" viewBox="0 0 216.000000 182.000000"
 preserveAspectRatio="xMidYMid meet">
<metadata>
Created by potrace 1.14, written by Peter Selinger 2001-2017
</metadata>
<g transform="translate(0.000000,182.000000) scale(0.100000,-0.100000)"
fill="#6a6a6a" stroke="none">
<path  d="M1117 1796 c-64 -21 -72 -22 -110 -9 -29 10 -69 14 -127 11 -97 -5
-169 -34 -230 -94 -30 -29 -43 -34 -81 -34 -136 0 -271 -100 -309 -228 -11
-35 -22 -47 -65 -71 -83 -47 -138 -128 -171 -248 -18 -69 -20 -213 -4 -274 32
-118 109 -211 218 -262 56 -26 82 -32 159 -35 68 -3 106 0 143 12 54 18 56 17
110 -25 19 -15 53 -32 74 -39 55 -18 156 -8 200 19 l36 22 34 -26 c49 -37 128
-65 184 -65 26 0 53 -5 60 -12 9 -9 12 -69 12 -208 0 -139 3 -199 12 -208 18
-18 401 -17 416 1 6 7 16 42 21 77 27 165 63 223 177 280 113 57 171 131 189
240 4 25 17 61 30 80 47 69 59 111 59 205 1 77 -3 99 -26 150 -21 47 -28 80
-31 150 -3 67 -9 102 -26 137 -32 66 -94 134 -155 168 -28 16 -69 52 -91 81
-75 97 -180 149 -300 149 -53 0 -73 5 -103 25 -43 28 -139 55 -197 55 -22 0
-71 -11 -108 -24z m224 -75 c28 -11 60 -28 71 -38 16 -14 38 -18 107 -19 72 0
94 -5 137 -26 53 -28 117 -91 129 -127 4 -14 27 -31 59 -45 63 -28 117 -81
147 -144 17 -37 22 -67 23 -137 2 -74 6 -96 24 -126 52 -85 44 -215 -18 -303
-17 -25 -31 -60 -36 -91 -13 -100 -48 -147 -147 -196 -129 -65 -192 -163 -222
-341 -6 -37 -7 -38 -51 -38 l-46 0 4 162 c3 157 4 165 30 210 24 40 40 52 125
95 74 37 105 58 130 91 37 49 42 86 14 102 -27 14 -47 4 -72 -36 -15 -25 -43
-45 -107 -76 -167 -81 -201 -144 -209 -390 l-6 -158 -43 0 -44 0 0 180 c0 244
-4 251 -143 269 -82 10 -125 30 -170 81 -35 39 -53 38 -117 -5 -83 -56 -151
-47 -243 34 -27 22 -50 41 -53 41 -3 0 -24 -10 -47 -22 -36 -20 -57 -23 -142
-23 -89 0 -105 3 -151 27 -163 86 -220 302 -133 505 25 58 93 130 137 144 50
16 62 27 62 58 0 47 46 128 90 160 58 42 103 55 165 47 l53 -6 54 53 c36 35
71 60 103 70 60 21 154 22 202 2 44 -19 73 -19 99 -1 54 38 159 45 235 17z"/>
<path d="M830 1622 c-44 -15 -39 -54 15 -107 42 -40 44 -45 34 -72 -17 -44
-29 -143 -22 -191 4 -31 13 -48 30 -59 22 -15 26 -15 41 1 13 13 17 35 17 99
0 70 4 91 28 140 16 32 26 64 23 72 -3 8 -22 25 -43 38 -21 14 -47 34 -58 47
-25 28 -46 39 -65 32z"/>
<path d="M1222 1604 c-17 -12 -22 -25 -22 -63 0 -146 95 -278 224 -313 61 -16
77 -6 91 63 11 56 25 88 56 128 26 32 24 47 -7 68 -27 17 -27 17 -65 -25 -21
-24 -45 -65 -54 -92 -16 -49 -17 -50 -43 -36 -57 30 -99 97 -108 173 -9 78
-13 92 -33 102 -13 7 -24 6 -39 -5z"/>
<path d="M542 1398 c-16 -16 -15 -38 4 -83 8 -20 14 -53 12 -73 l-3 -37 -71 3
c-78 4 -145 -10 -164 -33 -10 -12 -10 -21 -1 -42 11 -23 15 -25 49 -19 101 19
121 19 163 -3 22 -12 49 -19 59 -16 52 16 69 221 24 282 -23 31 -53 40 -72 21z"/>
<path fill="#0c2244" d="M1793 1348 c-6 -7 -19 -31 -29 -52 -10 -22 -40 -62 -66 -88 -26 -27
-48 -51 -48 -55 0 -3 13 -27 30 -53 40 -62 60 -123 60 -181 0 -57 15 -69 84
-69 24 0 57 -5 72 -10 36 -14 63 -4 70 26 9 35 -10 52 -76 66 l-58 12 -7 43
c-3 23 -19 68 -35 99 l-28 56 35 47 c63 81 79 142 44 161 -26 13 -36 13 -48
-2z"/>
<path d="M1175 1166 c-30 -30 -31 -63 -10 -181 19 -106 19 -191 -2 -250 -16
-48 -16 -49 6 -67 72 -58 117 117 82 320 -7 40 -11 75 -9 77 2 2 28 -5 58 -15
30 -11 72 -19 92 -20 59 0 105 -48 132 -137 6 -20 4 -23 -17 -23 -63 0 -150
-50 -145 -83 5 -33 32 -44 70 -27 18 8 63 15 99 16 36 0 72 5 79 9 19 12 6
132 -20 187 -25 54 -74 106 -116 124 -17 7 -55 16 -85 20 -53 7 -100 24 -129
49 -32 27 -59 27 -85 1z"/>
<path fill="#0c2244" d="M915 1104 c-25 -9 -66 -14 -110 -12 l-69 3 -19 -40 c-24 -52 -73
-104 -114 -121 -19 -8 -68 -14 -120 -14 -125 0 -192 -38 -152 -86 10 -12 22
-14 54 -8 22 4 78 8 125 10 52 1 100 8 123 18 46 20 123 89 143 128 13 25 19
28 48 23 18 -4 50 -2 70 3 31 9 38 8 46 -8 8 -15 2 -30 -29 -75 -22 -31 -45
-78 -51 -106 -11 -47 -11 -53 8 -71 32 -32 58 -16 76 46 10 35 32 71 66 110
27 31 50 61 50 67 0 5 -10 26 -23 47 -12 20 -29 50 -38 67 -18 36 -31 39 -84
19z"/>
</g>
</svg>
