<?xml version="1.0" standalone="no"?>
<!DOCTYPE svg PUBLIC "-//W3C//DTD SVG 20010904//EN"
 "http://www.w3.org/TR/2001/REC-SVG-20010904/DTD/svg10.dtd">
<svg version="1.0" xmlns="http://www.w3.org/2000/svg"
 width="69px" height="69px" viewBox="0 0 246.000000 247.000000"
 preserveAspectRatio="xMidYMid meet">

<g transform="translate(0.000000,247.000000) scale(0.100000,-0.100000)"
fill="#a2a3a3" stroke="none">
<path d="M1792 2448 c-7 -7 -12 -27 -12 -45 l0 -32 -380 -3 c-294 -2 -382 -6
-392 -16 -10 -10 -14 -110 -18 -449 l-5 -436 -370 -92 c-203 -51 -377 -96
-387 -99 -9 -4 -19 -17 -22 -29 -3 -12 -6 -275 -6 -584 l0 -563 -83 0 c-88 0
-107 -8 -107 -46 0 -57 -59 -54 1225 -54 1284 0 1225 -3 1225 54 0 38 -19 46
-107 46 l-83 0 0 1113 c0 611 -4 1117 -8 1123 -19 29 -56 35 -219 33 l-168 -1
-1 31 c-1 17 -7 38 -14 46 -15 18 -51 20 -68 3z m376 -1266 l2 -1083 -97 3
-98 3 -3 180 c-3 230 11 215 -196 215 -116 0 -157 -3 -172 -14 -17 -13 -19
-31 -24 -198 l-5 -183 -242 -3 -243 -2 0 1085 0 1085 538 -2 537 -3 3 -1083z
m-1183 -448 l0 -629 -342 -3 -343 -2 0 548 0 548 248 63 c136 34 285 73 332
85 47 13 90 22 95 21 7 -1 10 -219 10 -631z m890 -484 l0 -145 -97 -3 -98 -3
0 151 0 151 98 -3 97 -3 0 -145z"/>
<path d="M1299 2054 c-7 -8 -14 -40 -17 -69 -5 -64 15 -105 51 -105 38 0 47
19 47 97 0 61 -3 74 -19 83 -27 14 -46 13 -62 -6z"/>
<path fill="#0c2244" d="M1596 2054 c-11 -11 -16 -34 -16 -75 0 -76 12 -99 50 -99 37 0 50 23
50 92 0 83 -42 124 -84 82z"/>
<path d="M1892 2058 c-7 -7 -12 -41 -12 -83 0 -75 9 -95 45 -95 36 0 45 20 45
97 0 61 -3 74 -19 83 -26 13 -44 13 -59 -2z"/>
<path d="M1304 1666 c-16 -12 -19 -27 -19 -86 0 -59 3 -74 19 -86 49 -35 76
-4 76 84 0 37 -4 72 -8 78 -13 20 -47 25 -68 10z"/>
<path fill="#0c2244" d="M1602 1664 c-19 -13 -22 -24 -22 -84 0 -60 3 -71 22 -84 29 -20 34
-20 58 4 16 16 20 33 20 80 0 47 -4 64 -20 80 -24 24 -29 24 -58 4z"/>
<path d="M1898 1669 c-15 -8 -18 -24 -18 -89 0 -68 3 -81 19 -90 49 -26 71 2
71 88 0 37 -4 72 -8 78 -11 17 -45 24 -64 13z"/>
<path d="M1313 1279 c-28 -10 -37 -44 -31 -115 5 -58 17 -74 54 -74 36 0 45
23 42 100 -2 60 -7 75 -23 85 -13 9 -28 10 -42 4z"/>
<path fill="#0c2244" d="M1590 1261 c-16 -31 -13 -137 6 -155 17 -18 42 -20 64 -6 23 14 27
142 5 163 -22 23 -62 22 -75 -2z"/>
<path d="M1892 1268 c-7 -7 -12 -41 -12 -83 0 -75 9 -95 45 -95 36 0 45 20 45
95 0 75 -9 95 -45 95 -12 0 -26 -5 -33 -12z"/>
<path d="M1305 876 c-22 -16 -32 -107 -17 -147 13 -32 44 -42 71 -22 18 12 21
25 21 83 0 90 -27 121 -75 86z"/>
<path fill="#0c2244" d="M1596 874 c-12 -11 -16 -35 -16 -84 0 -59 3 -71 21 -84 45 -31 79 6
79 84 0 85 -42 127 -84 84z"/>
<path d="M1898 879 c-15 -8 -18 -24 -18 -82 0 -40 4 -77 8 -83 13 -19 39 -23
61 -8 18 13 21 25 21 89 0 63 -3 76 -19 85 -24 12 -31 12 -53 -1z"/>
<path d="M1313 490 c-15 -6 -24 -21 -29 -45 -18 -100 31 -179 81 -129 25 25
17 152 -10 169 -13 9 -28 10 -42 5z"/>
<path fill="#0c2244" d="M516 974 c-9 -8 -16 -24 -16 -34 0 -41 25 -50 145 -50 90 0 117 3
129 16 20 20 20 48 0 68 -23 23 -235 23 -258 0z"/>
<path fill="#0c2244" d="M512 678 c-15 -15 -15 -51 0 -66 17 -17 249 -17 266 0 7 7 12 21 12
33 0 12 -5 26 -12 33 -17 17 -249 17 -266 0z"/>
<path d="M516 384 c-9 -8 -16 -24 -16 -34 0 -41 25 -50 145 -50 90 0 117 3
129 16 22 22 20 50 -6 68 -32 23 -230 23 -252 0z"/>
</g>
</svg>
