<?xml version="1.0" standalone="no"?>
<!DOCTYPE svg PUBLIC "-//W3C//DTD SVG 20010904//EN"
 "http://www.w3.org/TR/2001/REC-SVG-20010904/DTD/svg10.dtd">
<svg version="1.0" xmlns="http://www.w3.org/2000/svg"
 width="25px" height="16px" viewBox="0 0 283.000000 182.000000"
 preserveAspectRatio="xMidYMid meet">

<g transform="translate(0.000000,182.000000) scale(0.100000,-0.100000)"
fill="#0c2244" stroke="none">
<path d="M133 1810 c-49 -11 -81 -36 -103 -80 -19 -38 -20 -58 -20 -588 0
-538 0 -549 20 -570 24 -25 67 -29 96 -8 18 14 19 33 24 395 l5 381 615 -381
c493 -305 620 -379 639 -374 13 3 297 170 631 369 334 200 617 369 629 375
l21 12 0 -596 0 -595 -1270 0 -1270 0 0 94 c0 111 -14 139 -70 139 -57 0 -70
-27 -70 -152 0 -91 3 -112 23 -145 12 -22 38 -49 57 -60 35 -21 41 -21 1330
-21 1282 0 1295 0 1330 20 21 12 44 39 58 65 l22 44 0 776 0 776 -22 44 c-14
26 -37 53 -58 65 -35 20 -50 20 -1310 22 -701 0 -1290 -2 -1307 -7z m2557
-224 c0 -66 -3 -85 -15 -90 -9 -3 -295 -173 -637 -377 -341 -204 -627 -373
-634 -376 -8 -3 -293 168 -633 378 l-620 384 -1 83 0 82 1270 0 1270 0 0 -84z"/>
</g>
</svg>
