<?xml version="1.0" standalone="no"?>
<!DOCTYPE svg PUBLIC "-//W3C//DTD SVG 20010904//EN"
 "http://www.w3.org/TR/2001/REC-SVG-20010904/DTD/svg10.dtd">
<svg version="1.0" xmlns="http://www.w3.org/2000/svg"
 width="20px" height="22px" viewBox="0 0 328.000000 354.000000"
 preserveAspectRatio="xMidYMid meet">
<metadata>
Created by potrace 1.14, written by Peter Selinger 2001-2017
</metadata>
<g transform="translate(0.000000,354.000000) scale(0.100000,-0.100000)"
fill="#f0f0f0" stroke="none">
<path d="M1243 3506 l-28 -24 -3 -548 c-2 -401 1 -556 9 -577 25 -60 108 -71
149 -20 19 25 20 40 20 519 l0 494 394 0 395 0 3 -289 c3 -276 4 -291 24 -318
11 -15 36 -38 54 -50 32 -23 39 -23 321 -23 l289 0 0 -154 c0 -138 2 -156 20
-179 39 -49 116 -42 145 14 21 40 21 398 1 437 -8 15 -176 188 -373 385 l-359
357 -517 0 -516 0 -28 -24z m1307 -481 l175 -175 -178 0 -177 0 0 175 c0 96 1
175 3 175 1 0 81 -79 177 -175z"/>
<path d="M575 2695 c-302 -56 -528 -299 -566 -609 -6 -50 -9 -356 -7 -786 4
-788 1 -749 77 -905 85 -171 229 -295 421 -361 44 -15 83 -19 195 -19 170 1
230 18 279 78 l31 39 3 311 c4 341 1 365 -50 423 -44 50 -83 68 -163 74 l-70
5 -3 413 -2 412 58 0 c78 0 155 39 197 98 l30 44 0 332 0 333 -29 37 c-36 48
-89 71 -189 85 -96 13 -122 13 -212 -4z m224 -181 l31 -6 0 -269 c0 -255 -1
-269 -19 -279 -11 -5 -64 -10 -119 -10 -93 0 -100 -1 -123 -26 l-24 -26 -3
-526 c-2 -384 1 -534 9 -555 18 -44 56 -57 162 -57 59 0 97 -4 105 -12 16 -16
17 -534 1 -544 -6 -3 -48 -9 -92 -11 -239 -15 -444 132 -520 372 -22 69 -22
75 -22 785 0 776 0 771 56 886 85 173 258 283 445 284 45 0 96 -3 113 -6z"/>
<path d="M1213 2048 c-12 -6 -29 -26 -38 -44 -14 -29 -14 -37 -1 -68 8 -19 23
-39 34 -45 15 -8 305 -11 957 -11 l936 0 -3 -742 c-3 -734 -3 -744 -24 -788
-28 -59 -77 -108 -139 -136 l-50 -24 -823 0 c-905 0 -869 2 -891 -61 -13 -37
6 -91 37 -108 14 -8 276 -11 854 -11 791 0 836 1 896 19 116 35 214 117 267
221 54 106 55 123 55 931 l0 746 -23 43 c-16 30 -37 51 -67 67 l-43 23 -956
-1 c-653 0 -963 -4 -978 -11z"/>
<path d="M1475 1485 c-37 -36 -37 -86 0 -124 45 -46 197 -42 241 6 26 28 31
62 12 96 -21 40 -40 46 -136 47 -86 0 -95 -2 -117 -25z"/>
<path d="M1975 1485 c-35 -34 -34 -93 0 -125 28 -26 113 -38 181 -26 80 15
111 96 58 150 -25 24 -32 26 -121 26 -86 0 -96 -2 -118 -25z"/>
<path d="M2476 1484 c-53 -54 -22 -135 58 -150 20 -3 64 -4 98 -2 51 4 65 9
85 32 31 37 31 89 -2 121 -22 23 -32 25 -118 25 -89 0 -96 -2 -121 -26z"/>
<path d="M1487 1109 c-11 -6 -25 -27 -33 -45 -13 -31 -13 -39 2 -69 10 -21 27
-38 46 -44 46 -16 154 -14 188 4 58 30 67 90 21 136 -28 28 -33 29 -118 29
-48 0 -96 -5 -106 -11z"/>
<path d="M1976 1095 c-36 -33 -36 -92 0 -126 23 -22 34 -24 121 -24 91 0 96 1
119 28 33 38 32 86 -2 121 -25 24 -33 26 -119 26 -84 0 -94 -2 -119 -25z"/>
<path d="M2476 1094 c-34 -35 -35 -83 -2 -121 23 -27 28 -28 119 -28 87 0 98
2 121 24 36 34 36 93 0 126 -25 23 -35 25 -119 25 -86 0 -94 -2 -119 -26z"/>
<path d="M1475 707 c-37 -31 -37 -89 -1 -125 46 -47 197 -43 242 5 26 28 31
62 12 96 -21 40 -40 46 -135 47 -82 0 -95 -3 -118 -23z"/>
<path d="M1975 705 c-34 -33 -34 -93 -1 -124 27 -26 117 -39 181 -27 80 15
112 94 60 150 -23 25 -29 26 -120 26 -88 0 -98 -2 -120 -25z"/>
<path d="M2475 704 c-52 -56 -20 -135 60 -150 20 -3 65 -4 98 -1 50 5 66 10
84 32 31 36 31 88 -2 120 -22 23 -32 25 -120 25 -91 0 -97 -1 -120 -26z"/>
</g>
</svg>
