<?xml version="1.0" standalone="no"?>
<!DOCTYPE svg PUBLIC "-//W3C//DTD SVG 20010904//EN"
 "http://www.w3.org/TR/2001/REC-SVG-20010904/DTD/svg10.dtd">
<svg version="1.0" xmlns="http://www.w3.org/2000/svg"
 width="65px" height="69px" viewBox="0 0 273.000000 289.000000"
 preserveAspectRatio="xMidYMid meet">

<g transform="translate(0.000000,289.000000) scale(0.100000,-0.100000)"
fill="#969798" stroke="none">
<path d="M765 2866 c-226 -55 -381 -286 -345 -513 55 -350 466 -516 741 -299
179 141 230 397 119 591 -35 62 -130 154 -188 184 -95 48 -222 63 -327 37z
m261 -149 c67 -34 137 -113 164 -185 58 -153 -16 -340 -165 -415 -166 -83
-373 -7 -451 167 -81 179 13 391 200 452 67 22 191 13 252 -19z"/>
<path fill="#0c2244" d="M2352 2871 c-28 -17 -42 -64 -42 -136 l0 -73 -37 -7 c-190 -35 -290
-245 -197 -415 58 -107 146 -150 308 -150 90 0 107 -3 136 -22 76 -52 100
-135 61 -205 -44 -76 -49 -77 -294 -83 -202 -5 -220 -7 -233 -24 -20 -28 -17
-63 6 -86 18 -18 33 -20 135 -20 l115 0 0 -74 c0 -109 33 -158 96 -142 36 9
54 55 54 138 l0 73 59 17 c81 24 139 71 175 141 36 71 43 137 22 209 -22 78
-74 140 -143 174 -50 25 -72 29 -178 34 -101 4 -126 9 -156 27 -97 60 -88 218
15 267 28 13 70 16 229 16 181 0 196 1 221 21 31 25 34 61 6 89 -18 18 -33 20
-135 20 l-115 0 0 75 c0 103 -23 145 -78 145 -9 0 -23 -4 -30 -9z"/>
<path d="M355 1820 c-189 -39 -302 -149 -341 -329 -17 -82 -21 -1112 -4 -1173
28 -99 135 -178 241 -178 33 0 76 7 96 15 45 19 43 19 43 -7 0 -37 42 -99 80
-119 32 -18 64 -19 437 -19 260 0 412 4 430 11 35 13 72 46 87 79 7 17 13 177
16 508 l5 482 192 -154 c124 -100 206 -159 230 -165 23 -7 163 -11 353 -11
283 0 319 2 355 19 164 74 206 271 86 404 -68 76 -91 81 -386 87 l-261 5 -239
254 c-297 315 -272 301 -511 301 -202 0 -178 14 -280 -168 -80 -142 -62 -146
-161 31 -36 65 -74 122 -84 127 -21 12 -327 11 -384 0z m410 -294 c143 -256
150 -256 294 -1 l96 170 125 3 c105 2 130 0 156 -15 17 -10 138 -133 269 -273
131 -140 250 -260 264 -267 18 -8 104 -12 284 -13 206 0 264 -3 286 -15 31
-15 61 -69 61 -108 0 -31 -38 -88 -70 -104 -34 -17 -601 -18 -633 -1 -12 6
-123 93 -247 193 -282 227 -273 223 -315 180 l-25 -24 0 -536 c0 -351 -4 -543
-10 -556 -10 -18 -25 -19 -383 -19 -217 0 -378 4 -387 10 -13 8 -15 88 -18
602 -1 326 -5 603 -7 614 -3 12 -18 27 -35 34 -25 10 -34 10 -55 -4 -14 -9
-26 -17 -27 -19 -1 -1 -5 -235 -8 -519 l-5 -518 -31 -31 c-23 -23 -43 -32 -75
-36 -53 -5 -86 11 -117 57 l-23 34 3 546 c3 503 5 549 22 597 51 140 152 191
387 192 l126 1 98 -174z"/>
</g>
</svg>
