<?xml version="1.0" standalone="no"?>
<!DOCTYPE svg PUBLIC "-//W3C//DTD SVG 20010904//EN"
 "http://www.w3.org/TR/2001/REC-SVG-20010904/DTD/svg10.dtd">
<svg version="1.0" xmlns="http://www.w3.org/2000/svg"
 width="71px" height="71px" viewBox="0 0 250.000000 249.000000"
 preserveAspectRatio="xMidYMid meet">

<g transform="translate(0.000000,249.000000) scale(0.100000,-0.100000)"
fill="#6a6a6a" stroke="none">
<path d="M1055 2474 c-538 -94 -947 -502 -1036 -1033 -14 -85 -14 -307 0 -392
41 -244 160 -486 325 -658 538 -561 1442 -506 1903 116 105 142 180 310 220
493 25 118 25 372 0 490 -64 295 -232 564 -466 744 -145 112 -366 206 -566
240 -109 19 -272 19 -380 0z m470 -153 c557 -144 914 -688 821 -1251 -38 -230
-135 -426 -295 -593 -207 -217 -452 -326 -771 -343 -294 -16 -602 106 -820
326 -537 541 -388 1441 295 1783 82 41 208 82 315 102 124 23 310 14 455 -24z"/>
<path fill="#0c2244" d="M1216 1878 c-9 -13 -16 -43 -16 -69 l0 -47 -46 -11 c-105 -27 -196
-97 -232 -180 -20 -48 -20 -147 1 -187 32 -62 110 -115 220 -150 l57 -18 0
-193 c0 -131 -3 -193 -11 -193 -24 0 -147 55 -198 88 -50 34 -55 35 -80 21
-39 -22 -39 -60 0 -93 55 -46 173 -101 262 -120 24 -6 27 -11 27 -46 0 -81 36
-118 85 -86 22 14 25 24 25 71 0 42 4 55 15 55 34 0 144 44 186 75 128 93 132
277 7 391 -38 35 -134 89 -190 108 -16 5 -18 23 -18 181 l0 175 28 -6 c46 -12
94 -35 141 -67 41 -28 46 -29 70 -16 16 9 27 25 29 41 3 22 -6 34 -47 67 -47
36 -143 81 -176 81 -37 0 -45 12 -45 69 0 31 -5 62 -12 69 -20 20 -65 14 -82
-10z m-16 -389 l0 -160 -22 6 c-101 30 -168 86 -168 140 1 36 37 102 70 125
29 21 92 48 113 50 4 0 7 -72 7 -161z m171 -329 c59 -31 117 -93 125 -135 9
-48 -1 -103 -23 -128 -22 -25 -110 -67 -140 -67 -23 0 -23 0 -23 175 0 114 4
175 10 175 6 0 29 -9 51 -20z"/>
</g>
</svg>
