<?xml version="1.0" standalone="no"?>
<!DOCTYPE svg PUBLIC "-//W3C//DTD SVG 20010904//EN"
 "http://www.w3.org/TR/2001/REC-SVG-20010904/DTD/svg10.dtd">
<svg version="1.0" xmlns="http://www.w3.org/2000/svg"
 width="127px" height="69px" viewBox="0 0 386.000000 210.000000"
 preserveAspectRatio="xMidYMid meet">

<g transform="translate(0.000000,210.000000) scale(0.100000,-0.100000)"
fill="#999a9a" stroke="none">
<path d="M467 2072 c-14 -16 -17 -43 -17 -170 0 -122 -3 -152 -14 -152 -7 0
-25 -9 -40 -21 l-26 -20 0 -335 0 -334 -120 0 -120 0 0 425 c0 412 -1 426 -20
445 -26 26 -55 25 -80 0 -20 -20 -20 -29 -18 -818 l3 -797 27 -58 c38 -80 115
-158 191 -193 l62 -29 1516 -3 c1436 -2 1517 -1 1531 15 28 34 508 939 508
959 0 12 -8 28 -18 37 -17 15 -57 17 -365 17 l-347 0 0 369 0 370 -22 15 c-19
14 -66 16 -309 16 -265 0 -287 -1 -302 -18 -15 -17 -17 -60 -20 -383 l-2 -364
-57 -3 -58 -3 0 370 0 370 -22 15 c-19 14 -66 16 -309 16 -265 0 -287 -1 -303
-18 -14 -17 -16 -60 -19 -383 l-2 -364 -192 -3 -193 -2 0 334 0 335 -26 20
c-15 12 -33 21 -40 21 -11 0 -14 30 -14 153 0 136 -2 156 -18 170 -17 15 -57
17 -374 17 -331 0 -356 -1 -371 -18z m643 -212 l0 -110 -270 0 -270 0 0 110 0
110 270 0 270 0 0 -110z m1120 -300 l0 -130 -205 0 -205 0 0 130 0 130 205 0
205 0 0 -130z m770 0 l0 -130 -205 0 -205 0 0 130 0 130 205 0 205 0 0 -130z
m-1810 -230 l0 -290 -350 0 -350 0 0 290 0 290 350 0 350 0 0 -290z m1040
-160 l0 -130 -205 0 -205 0 0 130 0 130 205 0 205 0 0 -130z m770 0 l0 -130
-205 0 -205 0 0 130 0 130 205 0 205 0 0 -130z m476 -645 l-211 -395 -1465 0
c-1452 0 -1465 1 -1510 21 -55 25 -105 71 -133 124 -21 38 -22 55 -25 343 l-3
302 1779 0 1780 0 -212 -395z"/>
<path d="M605 745 c-43 -42 -57 -21 184 -293 158 -178 179 -193 218 -148 13
15 23 34 23 42 0 8 -64 87 -142 176 -240 273 -237 270 -283 223z"/>
<path d="M1355 745 c-43 -42 -53 -25 183 -293 159 -179 180 -193 219 -148 13
15 23 34 23 42 0 8 -64 87 -142 176 -240 273 -237 270 -283 223z"/>
<path d="M2105 745 c-43 -42 -53 -25 183 -293 159 -179 180 -193 219 -148 13
15 23 34 23 42 0 8 -64 87 -142 176 -240 273 -237 270 -283 223z"/>
<path d="M2855 745 c-43 -42 -53 -25 183 -293 159 -179 180 -193 219 -148 13
15 23 34 23 42 0 8 -64 87 -142 176 -240 273 -237 270 -283 223z"/>
</g>
</svg>
