<?xml version="1.0" standalone="no"?>
<!DOCTYPE svg PUBLIC "-//W3C//DTD SVG 20010904//EN"
 "http://www.w3.org/TR/2001/REC-SVG-20010904/DTD/svg10.dtd">
<svg version="1.0" xmlns="http://www.w3.org/2000/svg"
 width="70px" height="69px" viewBox="0 0 315.000000 311.000000"
 preserveAspectRatio="xMidYMid meet">

<g transform="translate(0.000000,311.000000) scale(0.100000,-0.100000)"
fill="#9a9b9b" stroke="none">
<path d="M2440 3101 c-50 -16 -88 -41 -120 -77 -52 -59 -60 -90 -60 -224 l0
-120 -54 0 c-106 0 -146 -34 -146 -125 0 -26 -3 -45 -7 -43 -5 2 -31 15 -58
30 -102 53 -189 73 -320 72 -105 0 -131 -4 -204 -29 -218 -74 -391 -257 -451
-478 -26 -95 -29 -245 -6 -332 50 -190 183 -354 356 -439 282 -138 574 -92
790 124 136 135 199 279 205 465 l3 100 262 5 262 5 24 28 24 28 0 265 0 266
-29 29 c-26 26 -36 29 -94 29 l-65 0 -4 118 c-5 131 -19 176 -71 230 -18 19
-49 43 -71 54 -43 22 -128 32 -166 19z m153 -104 c55 -42 67 -79 67 -206 l0
-111 -165 0 -165 0 0 113 c0 98 3 117 23 152 48 85 164 110 240 52z m265 -644
l-3 -248 -355 0 -355 0 -3 248 -2 247 360 0 360 0 -2 -247z m-1060 181 c78
-15 180 -57 233 -94 l29 -21 0 -164 c0 -159 1 -165 24 -192 22 -26 31 -28 113
-33 l88 -5 3 -79 c13 -344 -297 -639 -644 -612 -260 20 -482 205 -549 456 -24
90 -20 247 9 334 35 104 86 184 160 254 75 70 130 104 211 133 110 39 211 46
323 23z"/>
<path fill="#0c2244" d="M2290 2420 l0 -40 205 0 205 0 0 40 0 40 -205 0 -205 0 0 -40z"/>
<path fill="#0c2244" d="M2290 2270 l0 -40 205 0 205 0 0 40 0 40 -205 0 -205 0 0 -40z"/>
<path fill="#0c2244" d="M1640 2326 c0 -53 -3 -66 -15 -66 -33 0 -96 -42 -121 -80 -36 -54
-42 -115 -16 -166 37 -71 89 -105 187 -119 60 -8 98 -27 119 -57 24 -35 19
-65 -18 -106 -32 -34 -39 -37 -89 -37 -68 0 -103 19 -128 67 -17 33 -24 38
-54 38 -42 0 -46 -20 -15 -79 23 -47 67 -85 115 -101 35 -12 35 -12 35 -71 l0
-60 38 3 37 3 3 57 c3 54 4 57 35 67 52 17 104 67 123 117 15 39 16 53 6 91
-25 91 -88 140 -200 153 -59 8 -71 13 -99 44 -43 47 -43 78 1 122 31 31 39 34
96 34 57 0 65 -3 96 -34 19 -19 34 -41 34 -50 0 -12 10 -16 41 -16 41 0 41 0
34 33 -15 69 -69 125 -137 142 -25 7 -27 11 -30 68 l-3 62 -37 3 -38 3 0 -65z"/>
<path d="M7 1203 c-4 -3 -7 -19 -7 -35 0 -20 5 -28 18 -28 9 0 155 0 323 0
168 0 313 -2 323 -6 15 -6 16 -48 16 -469 0 -413 -2 -464 -16 -469 -9 -3 -130
-6 -270 -6 l-254 0 0 -35 c0 -19 5 -35 10 -35 159 -4 595 1 601 7 4 4 9 31 11
58 l3 50 86 3 87 3 346 -116 c387 -129 439 -140 542 -110 32 9 109 43 169 75
61 31 173 90 250 130 77 40 176 92 220 115 72 38 279 146 499 259 152 79 202
149 176 247 -20 76 -99 139 -174 139 -40 0 -76 -14 -416 -164 -157 -69 -293
-126 -302 -126 -13 0 -18 8 -18 30 0 67 -60 131 -140 149 -25 6 -147 11 -272
11 l-227 0 -118 56 c-334 158 -291 146 -520 151 l-193 5 0 43 c0 81 31 75
-379 75 -202 0 -371 -3 -374 -7z m1143 -207 c30 -8 142 -56 248 -105 l194 -91
253 0 c236 0 254 -1 277 -20 50 -39 39 -133 -18 -159 -17 -7 -122 -11 -325
-11 -278 0 -303 -1 -338 -20 -51 -26 -91 -74 -91 -111 0 -45 43 -40 90 11 l37
40 295 0 c299 0 318 2 405 41 24 10 45 19 47 19 2 0 43 18 90 40 47 22 88 40
90 40 2 0 37 15 78 34 444 204 483 217 536 180 43 -30 56 -74 38 -132 -8 -24
-76 -66 -246 -151 -80 -41 -149 -77 -155 -81 -5 -4 -91 -49 -190 -100 -99 -52
-243 -127 -320 -167 -275 -145 -317 -164 -381 -170 -73 -6 -98 0 -483 127
l-305 100 -108 0 -108 0 0 350 0 350 168 0 c114 0 185 -5 222 -14z"/>
</g>
</svg>
