<?xml version="1.0" standalone="no"?>
<!DOCTYPE svg PUBLIC "-//W3C//DTD SVG 20010904//EN"
 "http://www.w3.org/TR/2001/REC-SVG-20010904/DTD/svg10.dtd">
<svg version="1.0" xmlns="http://www.w3.org/2000/svg"
 width="56px" height="69px" viewBox="0 0 253.000000 313.000000"
 preserveAspectRatio="xMidYMid meet">

<g transform="translate(0.000000,313.000000) scale(0.100000,-0.100000)"
fill="#9c9d9d" stroke="none">
<path d="M1139 3120 c-260 -41 -501 -226 -611 -467 -34 -75 -68 -200 -68 -249
l0 -33 -77 -3 -76 -3 -5 -147 -4 -148 101 0 101 0 0 -32 c0 -57 49 -239 91
-338 185 -432 507 -660 805 -569 243 74 465 332 580 675 19 57 40 140 46 184
l12 80 93 0 93 0 0 150 0 150 -74 0 -74 0 -7 58 c-17 144 -101 321 -207 438
-103 112 -251 201 -397 239 -76 20 -244 27 -322 15z m261 -111 c27 -6 50 -14
50 -17 0 -4 -32 -92 -70 -197 -78 -210 -101 -245 -142 -212 -15 12 -164 404
-156 412 23 23 233 32 318 14z m-349 -249 c45 -122 85 -214 102 -235 37 -45
92 -63 147 -46 78 23 90 43 175 271 61 167 81 210 93 205 45 -17 159 -105 215
-165 109 -117 170 -264 184 -437 l6 -83 73 0 74 0 0 -50 0 -50 -855 0 -855 0
0 50 0 50 75 0 75 0 0 63 c0 194 112 421 265 536 56 43 134 91 146 91 4 0 40
-90 80 -200z m873 -732 c-30 -213 -148 -465 -288 -615 -198 -212 -410 -253
-615 -117 -198 132 -368 432 -416 732 l-7 42 666 0 666 0 -6 -42z"/>
<path d="M672 1115 c-147 -68 -307 -199 -416 -339 -111 -141 -174 -271 -214
-436 -23 -95 -48 -301 -38 -325 5 -13 142 -15 1263 -13 l1258 3 -3 85 c-15
426 -245 796 -622 1002 -98 54 -103 55 -120 11 -8 -21 -16 -41 -18 -45 -2 -4
32 -25 76 -47 294 -148 510 -440 567 -770 8 -46 15 -94 15 -107 l0 -24 -1156
0 -1157 0 7 68 c32 342 265 677 583 836 l72 36 -17 45 c-9 25 -19 45 -22 45
-3 0 -29 -11 -58 -25z"/>
</g>
</svg>
