<?xml version="1.0" standalone="no"?>
<!DOCTYPE svg PUBLIC "-//W3C//DTD SVG 20010904//EN"
 "http://www.w3.org/TR/2001/REC-SVG-20010904/DTD/svg10.dtd">
<svg version="1.0" xmlns="http://www.w3.org/2000/svg"
 width="46px" height="71px" viewBox="0 0 164.000000 254.000000"
 preserveAspectRatio="xMidYMid meet">

<g transform="translate(0.000000,254.000000) scale(0.100000,-0.100000)"
fill="#6a6a6a" stroke="none">
<path fill="#0c2244" d="M19 2523 c-10 -11 -13 -42 -12 -107 6 -268 123 -503 314 -629 86 -57
159 -80 264 -80 164 -1 199 34 199 198 0 104 -22 176 -79 262 -105 159 -322
302 -536 353 -102 24 -132 25 -150 3z m225 -124 c118 -43 211 -102 302 -193
106 -106 136 -167 142 -290 l5 -88 -24 12 c-39 22 -204 192 -244 253 -29 44
-44 57 -59 55 -13 -2 -22 -12 -24 -24 -4 -30 101 -166 196 -255 l77 -71 -68 5
c-86 6 -159 41 -239 115 -72 67 -120 138 -155 230 -27 72 -52 193 -53 255 0
38 0 39 33 32 17 -4 68 -20 111 -36z"/>
<path d="M886 2344 c-14 -14 -16 -75 -16 -520 l0 -504 -323 0 c-238 0 -326 -3
-335 -12 -9 -9 -12 -78 -12 -249 0 -234 0 -238 22 -253 13 -10 44 -16 75 -16
47 0 53 -3 57 -22 3 -13 21 -183 42 -378 20 -195 40 -363 45 -373 9 -16 42
-17 473 -17 412 0 465 2 477 16 8 10 26 141 51 372 20 197 37 367 38 380 0 20
5 22 60 22 47 0 64 4 81 21 19 19 20 29 17 255 -2 195 -6 236 -18 244 -9 6
-150 10 -332 10 l-318 0 0 498 c0 434 -2 500 -16 520 -18 26 -46 28 -68 6z
m654 -1284 l0 -170 -620 0 -620 0 0 170 0 170 620 0 620 0 0 -170z m-160 -297
c0 -30 -57 -589 -66 -640 l-5 -33 -390 0 c-303 0 -391 3 -394 13 -2 6 -18 147
-35 312 -16 165 -33 317 -36 338 l-6 37 466 0 466 0 0 -27z"/>
<path d="M1388 1994 c-238 -57 -410 -283 -359 -472 17 -61 46 -77 146 -77 70
0 89 4 145 32 73 36 153 110 207 192 73 109 124 289 93 326 -16 19 -151 19
-232 -1z m142 -84 c0 -17 -41 -120 -67 -165 -37 -67 -120 -153 -172 -180 -51
-26 -141 -43 -141 -28 0 20 83 104 147 150 64 46 74 66 42 86 -19 12 -76 -24
-163 -104 -48 -44 -56 -48 -56 -30 0 66 93 177 189 226 80 40 221 69 221 45z"/>
</g>
</svg>
