<?xml version="1.0" standalone="no"?>
<!DOCTYPE svg PUBLIC "-//W3C//DTD SVG 20010904//EN"
 "http://www.w3.org/TR/2001/REC-SVG-20010904/DTD/svg10.dtd">
<svg version="1.0" xmlns="http://www.w3.org/2000/svg"
 width="70px" height="69px" viewBox="0 0 514.000000 504.000000"
 preserveAspectRatio="xMidYMid meet">

<g transform="translate(0.000000,504.000000) scale(0.100000,-0.100000)"
fill="#9a9b9b" stroke="none">
<path d="M3005 4986 c-16 -7 -262 -247 -545 -532 -435 -438 -517 -525 -528
-560 -16 -55 -15 -97 3 -142 17 -40 271 -304 315 -326 70 -37 167 -22 226 35
l32 31 90 -93 90 -94 -259 -265 c-142 -146 -567 -575 -943 -955 l-684 -690
-35 34 c-20 18 -39 32 -44 30 -4 -2 -101 -99 -215 -214 l-207 -211 279 -279
280 -280 212 212 212 213 -36 37 -37 38 947 958 946 957 93 -92 92 -92 -34
-37 c-33 -37 -55 -91 -55 -138 0 -69 23 -105 160 -245 82 -85 151 -146 175
-157 52 -24 121 -24 168 0 42 22 1034 1018 1059 1065 24 43 23 137 -1 184 -11
20 -82 98 -158 174 -114 112 -146 138 -182 148 -73 19 -151 -2 -200 -54 -23
-25 -25 -25 -44 -8 -11 9 -186 187 -390 395 l-370 378 31 32 c17 18 36 45 41
60 15 40 14 122 -3 160 -18 41 -292 313 -329 327 -39 14 -116 12 -152 -4z
m-62 -823 c-227 -230 -455 -461 -507 -513 l-96 -95 -136 136 -136 136 508 512
508 512 135 -135 135 -135 -411 -418z m507 -20 c80 -82 254 -258 387 -393
l242 -245 -337 -344 -337 -343 -335 338 c-184 187 -359 365 -389 396 l-53 57
333 340 c184 187 336 341 339 341 3 0 71 -66 150 -147z m1054 -722 c71 -71
127 -133 125 -139 -2 -6 -231 -239 -508 -518 l-504 -507 -134 137 -134 137
503 509 c277 281 508 510 513 510 6 0 68 -58 139 -129z m-1661 -563 l-148
-148 -87 87 c-49 48 -88 90 -88 93 0 4 64 73 142 154 l141 147 94 -93 93 -93
-147 -147z m-351 -175 l86 -88 -89 -95 -89 -95 -92 92 -93 93 90 90 c49 49 92
90 95 90 3 0 44 -39 92 -87z m-298 -302 l89 -90 -594 -600 -593 -601 -29 33
c-16 17 -56 60 -90 94 l-60 62 589 595 c323 328 591 596 594 596 3 0 45 -40
94 -89z m-1237 -1578 l-97 -98 -165 165 -165 165 97 97 98 98 165 -165 165
-165 -98 -97z"/>
<path d="M3137 3737 l-57 -52 191 -197 c105 -109 196 -198 202 -198 6 0 35 23
64 52 l52 51 -191 199 c-105 109 -193 198 -197 198 -3 0 -32 -24 -64 -53z"/>
<path d="M4785 2537 c-88 -56 -175 -111 -193 -123 l-32 -20 42 -67 c27 -41 48
-65 56 -62 18 7 344 215 361 231 12 11 8 23 -29 78 -23 36 -43 66 -44 66 -1 0
-73 -46 -161 -103z"/>
<path d="M2630 1980 l0 -80 225 0 225 0 0 80 0 80 -225 0 -225 0 0 -80z"/>
<path d="M4670 1980 l0 -80 230 0 230 0 0 80 0 80 -230 0 -230 0 0 -80z"/>
<path d="M2913 1582 c-101 -64 -183 -121 -183 -126 0 -5 18 -38 41 -72 l41
-63 115 75 c63 41 148 96 189 122 41 26 74 51 74 56 0 16 -74 126 -85 126 -5
0 -92 -53 -192 -118z"/>
<path d="M4601 1635 l-40 -65 37 -24 c20 -13 77 -49 126 -81 49 -31 119 -77
156 -100 l67 -43 42 65 c22 35 41 67 41 71 -1 9 -366 242 -378 242 -6 0 -28
-29 -51 -65z"/>
<path d="M3045 1211 c-22 -10 -56 -36 -77 -58 -48 -54 -62 -119 -56 -257 4
-96 3 -106 -14 -112 -31 -10 -78 -55 -101 -98 -19 -35 -22 -61 -25 -183 l-4
-143 81 0 81 0 0 124 c0 68 3 131 6 140 6 14 95 16 910 16 l904 0 0 -140 0
-140 80 0 80 0 0 148 c0 147 0 149 -29 194 -17 27 -47 57 -71 70 l-41 23 2
150 3 150 -45 49 c-83 92 -21 86 -884 86 -714 0 -762 -2 -800 -19z m1563 -273
l3 -128 -765 0 c-687 0 -764 2 -770 16 -11 30 -7 219 6 232 9 9 188 12 768 10
l755 -3 3 -127z"/>
<path d="M10 110 l0 -80 2550 0 2550 0 0 80 0 80 -2550 0 -2550 0 0 -80z"/>
</g>
</svg>
