<?xml version="1.0" standalone="no"?>
<!DOCTYPE svg PUBLIC "-//W3C//DTD SVG 20010904//EN"
 "http://www.w3.org/TR/2001/REC-SVG-20010904/DTD/svg10.dtd">
<svg version="1.0" xmlns="http://www.w3.org/2000/svg"
 width="20px" height="17px" viewBox="0 0 361.000000 315.000000"
 preserveAspectRatio="xMidYMid meet">
<metadata>
Created by potrace 1.14, written by Peter Selinger 2001-2017
</metadata>
<g transform="translate(0.000000,315.000000) scale(0.100000,-0.100000)"
fill="#f0f0f0" stroke="none">
<path d="M899 2449 c-481 -381 -878 -699 -884 -708 -7 -10 -8 -261 -5 -727 l5
-710 34 -67 c60 -118 172 -203 301 -227 73 -14 2838 -14 2911 0 160 30 294
161 328 320 9 40 11 242 9 735 l-3 680 -884 697 c-673 532 -890 698 -911 698
-20 0 -235 -164 -901 -691z m1702 -105 c429 -339 778 -618 777 -620 -6 -6
-1568 -584 -1578 -584 -10 0 -1572 578 -1578 584 -1 2 351 283 784 625 478
378 792 620 801 617 8 -3 365 -283 794 -622z m-1596 -1068 c424 -157 782 -286
795 -286 14 0 392 136 840 303 l815 303 3 -590 c1 -387 -1 -609 -8 -642 -23
-108 -106 -191 -214 -214 -35 -7 -494 -10 -1466 -8 l-1415 3 -46 21 c-58 27
-116 85 -143 143 -21 45 -21 58 -24 668 l-3 621 48 -18 c26 -10 395 -147 818
-304z"/>
<path d="M1336 1868 c-20 -28 -20 -68 -2 -94 14 -18 31 -19 501 -19 470 0 487
1 501 19 18 26 18 66 -2 94 l-15 22 -484 0 -484 0 -15 -22z"/>
</g>
</svg>
