<?xml version="1.0" standalone="no"?>
<!DOCTYPE svg PUBLIC "-//W3C//DTD SVG 20010904//EN"
 "http://www.w3.org/TR/2001/REC-SVG-20010904/DTD/svg10.dtd">
<svg version="1.0" xmlns="http://www.w3.org/2000/svg"
 width="55px" height="57px" viewBox="0 0 297.000000 307.000000"
 preserveAspectRatio="xMidYMid meet">

<g transform="translate(0.000000,307.000000) scale(0.100000,-0.100000)"
fill="#c5c5c6" stroke="none">
<path d="M796 2656 c-362 -222 -668 -414 -680 -425 -20 -20 -21 -31 -21 -212
l0 -191 28 -24 c26 -22 37 -24 132 -24 l103 0 4 -116 c3 -113 4 -116 31 -140
19 -16 40 -24 67 -24 38 0 39 -1 35 -27 -3 -16 -21 -187 -41 -381 -33 -330
-35 -355 -19 -378 24 -38 58 -49 95 -34 17 7 35 21 40 30 5 10 30 212 55 450
40 387 43 435 30 460 -17 33 -33 40 -91 40 l-44 0 0 115 c0 110 -1 117 -25
140 -23 24 -31 25 -135 25 l-111 0 3 97 3 98 614 377 c596 365 615 376 640
363 14 -8 292 -178 616 -377 l590 -363 3 -97 3 -98 -114 0 c-109 0 -114 -1
-138 -26 -22 -23 -24 -35 -27 -140 l-4 -114 -38 0 c-52 0 -68 -8 -85 -40 -13
-25 -10 -74 29 -456 23 -236 48 -439 54 -450 18 -33 64 -49 99 -32 54 26 55
30 12 433 -21 204 -38 373 -39 376 0 4 20 9 45 12 78 8 85 21 85 159 l0 118
109 0 c102 0 112 2 138 24 l28 24 0 191 c0 190 0 191 -25 215 -14 13 -317 203
-675 422 -469 287 -660 399 -685 402 -31 3 -111 -43 -694 -402z"/>
<path d="M1414 2580 c-180 -56 -247 -279 -127 -419 89 -105 245 -121 355 -38
51 39 84 93 98 165 30 143 -86 288 -238 298 -31 2 -71 -1 -88 -6z m136 -177
c79 -72 17 -195 -87 -175 -31 6 -70 48 -78 82 -8 36 18 93 48 108 41 20 85 14
117 -15z"/>
<path d="M973 1916 c-27 -24 -28 -27 -31 -140 l-4 -116 -44 0 c-54 0 -94 -33
-94 -77 0 -32 77 -793 85 -841 11 -63 87 -85 133 -38 l26 26 -37 377 c-21 208
-38 381 -37 384 0 4 18 9 41 12 23 3 52 15 65 28 23 21 24 29 24 136 l0 113
380 0 380 0 0 -95 c0 -143 25 -185 111 -185 21 0 29 -5 28 -17 0 -10 -17 -178
-38 -373 -20 -195 -34 -366 -31 -380 4 -13 21 -33 38 -43 28 -17 37 -17 63 -7
16 7 35 22 41 33 9 17 97 812 98 880 0 10 -12 29 -26 42 -21 20 -38 25 -75 25
l-49 0 0 114 c0 97 -3 117 -19 137 l-19 24 -490 3 -490 3 -29 -25z"/>
<path fill="#777a80" d="M1393 1316 c-102 -33 -167 -90 -209 -181 -62 -136 -28 -290 87 -388
98 -84 248 -103 362 -45 92 46 167 152 183 256 13 89 -36 223 -103 283 -86 75
-223 107 -320 75z m183 -171 c144 -85 83 -317 -85 -319 -102 -1 -176 72 -176
174 0 47 5 63 29 94 61 80 149 99 232 51z"/>
<path fill="#777a80" d="M1138 626 c-83 -22 -156 -89 -188 -174 -16 -42 -20 -76 -20 -172 l0
-120 -375 0 -375 0 0 23 c0 12 5 59 12 105 l11 82 227 0 c234 0 282 6 300 40
17 32 11 75 -13 98 -23 22 -29 22 -318 22 l-296 0 -22 -24 c-20 -21 -27 -52
-51 -223 -28 -204 -27 -233 8 -259 25 -19 989 -19 1014 0 31 23 38 65 38 217
0 166 8 197 60 224 16 8 48 15 72 15 41 0 48 -5 113 -71 76 -77 110 -99 150
-99 40 0 74 22 150 99 65 66 72 71 113 71 51 0 93 -22 116 -60 13 -23 16 -57
16 -178 0 -155 9 -206 40 -222 20 -11 977 -14 1005 -4 8 4 22 19 30 34 13 24
11 50 -14 230 -25 173 -32 205 -52 226 l-22 24 -296 0 c-227 -1 -300 -4 -313
-14 -49 -37 -36 -114 22 -135 21 -7 117 -11 260 -11 l227 0 11 -82 c7 -46 12
-91 12 -100 0 -17 -25 -18 -375 -18 l-375 0 0 115 c0 141 -20 203 -86 269 -59
59 -131 86 -230 86 l-74 0 -81 -75 c-92 -86 -75 -88 -181 12 l-66 63 -69 -1
c-37 0 -89 -6 -115 -13z"/>
</g>
</svg>
