<?xml version="1.0" standalone="no"?>
<!DOCTYPE svg PUBLIC "-//W3C//DTD SVG 20010904//EN"
 "http://www.w3.org/TR/2001/REC-SVG-20010904/DTD/svg10.dtd">
<svg version="1.0" xmlns="http://www.w3.org/2000/svg"
 width="63px" height="69px" viewBox="0 0 314.000000 388.000000"
 preserveAspectRatio="xMidYMid meet">

<g transform="translate(0.000000,388.000000) scale(0.100000,-0.100000)"
fill="#999a9a" stroke="none">
<path d="M1457 3859 c-176 -41 -326 -206 -357 -390 -34 -203 77 -414 265 -504
40 -19 80 -35 89 -35 14 0 16 -18 16 -151 l0 -151 -57 6 c-156 16 -537 37
-568 32 -70 -13 -125 -103 -111 -180 9 -46 57 -101 101 -116 27 -9 99 -7 323
9 158 12 294 21 300 21 9 0 12 -239 12 -1021 l0 -1022 -62 7 c-213 21 -477
141 -652 294 -175 153 -315 376 -376 594 -11 39 -18 74 -15 76 2 2 34 7 70 10
36 2 64 8 63 12 -5 11 -260 230 -268 230 -8 0 -230 -261 -230 -270 0 -3 33 -3
73 1 39 3 75 4 78 3 3 -2 11 -29 19 -61 54 -244 190 -484 385 -678 168 -168
344 -278 558 -350 89 -30 139 -41 321 -73 36 -6 44 -14 84 -79 24 -40 47 -73
52 -73 4 0 29 33 54 74 45 73 48 75 94 81 329 43 607 170 833 383 209 197 344
424 414 697 l23 90 77 -2 c43 -2 75 1 73 6 -2 5 -50 64 -108 132 -58 67 -108
127 -111 132 -4 5 -69 -44 -144 -109 -152 -131 -152 -131 -42 -133 l49 -1 -7
-32 c-14 -72 -60 -198 -105 -288 -123 -246 -354 -465 -602 -572 -107 -46 -240
-83 -333 -93 l-65 -7 0 1022 0 1023 73 -7 c211 -18 533 -37 553 -32 31 8 82
52 99 87 34 65 3 164 -64 203 -34 20 -37 20 -295 3 -144 -10 -285 -20 -313
-23 l-53 -6 0 151 c0 141 1 151 19 151 10 0 52 17 92 37 202 100 309 327 254
538 -45 171 -177 307 -340 350 -64 16 -177 18 -238 4z m229 -217 c102 -52 157
-137 157 -245 0 -212 -218 -342 -404 -241 -145 79 -185 276 -83 409 73 96 224
131 330 77z"/>
</g>
</svg>
