<?xml version="1.0" standalone="no"?>
<!DOCTYPE svg PUBLIC "-//W3C//DTD SVG 20010904//EN"
 "http://www.w3.org/TR/2001/REC-SVG-20010904/DTD/svg10.dtd">
<svg version="1.0" xmlns="http://www.w3.org/2000/svg"
 width="21px" height="21px" viewBox="0 0 270.000000 266.000000"
 preserveAspectRatio="xMidYMid meet">
<metadata>
Created by potrace 1.14, written by Peter Selinger 2001-2017
</metadata>
<g transform="translate(0.000000,266.000000) scale(0.100000,-0.100000)"
fill="#f0f0f0" stroke="none">
<path d="M1226 2649 c-255 -18 -575 -113 -814 -241 -225 -121 -283 -163 -334
-240 -63 -95 -68 -125 -68 -383 l0 -232 26 -24 26 -24 273 -3 c293 -3 345 2
367 41 9 15 15 84 18 206 l5 185 94 33 c269 96 499 123 740 87 151 -22 323
-70 414 -116 l37 -18 0 -183 0 -184 26 -24 c26 -24 26 -24 292 -27 176 -2 280
0 305 8 67 20 70 30 65 292 -4 212 -7 238 -27 291 -49 125 -143 203 -406 336
-189 96 -357 155 -555 196 -64 12 -334 38 -365 33 -5 0 -59 -4 -119 -9z m251
-169 c242 -20 434 -75 668 -190 160 -78 285 -159 326 -210 37 -46 49 -111 49
-266 l0 -124 -169 0 -170 0 -3 164 c-3 157 -4 166 -27 190 -46 49 -278 136
-471 176 -131 28 -413 38 -544 21 -201 -27 -531 -134 -588 -192 l-28 -27 0
-161 0 -161 -170 0 -170 0 0 150 c0 217 8 232 180 334 135 80 191 109 320 161
182 73 370 119 545 134 55 5 105 9 112 10 7 0 70 -4 140 -9z"/>
<path d="M973 1816 l-28 -24 -5 -233 -5 -233 -95 -12 c-297 -38 -506 -128
-560 -239 -19 -40 -20 -61 -20 -532 l0 -491 31 -26 31 -26 1018 0 c624 0 1028
4 1044 10 55 21 56 27 56 538 0 497 -1 510 -48 567 -74 90 -270 163 -537 199
l-90 12 -5 224 c-3 124 -10 233 -14 243 -11 23 -58 47 -91 47 -16 0 -38 -12
-56 -29 l-29 -29 0 -220 0 -219 -225 0 -225 0 0 218 c0 119 -3 225 -6 234 -8
20 -56 45 -88 45 -14 0 -38 -11 -53 -24z m834 -680 c196 -26 357 -68 420 -110
l33 -21 0 -407 0 -408 -905 0 -905 0 0 403 c0 458 -8 417 90 460 96 42 293 79
540 101 111 10 611 -3 727 -18z"/>
<path d="M696 919 c-39 -31 -49 -63 -32 -104 38 -89 166 -66 166 30 0 27 -8
44 -29 66 -35 34 -68 37 -105 8z"/>
<path d="M1124 930 c-47 -19 -70 -93 -41 -131 36 -47 97 -51 138 -10 39 40 38
74 -5 117 -35 35 -54 40 -92 24z"/>
<path d="M1516 919 c-39 -31 -49 -63 -32 -104 38 -89 166 -66 166 30 0 27 -8
44 -29 66 -35 34 -68 37 -105 8z"/>
<path d="M1930 918 c-29 -20 -35 -30 -38 -66 -3 -35 1 -46 24 -67 31 -29 62
-32 105 -10 53 28 60 92 16 133 -36 33 -68 36 -107 10z"/>
<path d="M696 559 c-39 -31 -49 -63 -32 -104 38 -91 166 -65 166 34 0 32 -6
44 -31 65 -37 32 -68 33 -103 5z"/>
<path d="M1124 570 c-28 -11 -54 -48 -54 -78 0 -84 91 -122 151 -63 39 40 38
74 -5 117 -35 35 -54 40 -92 24z"/>
<path d="M1516 559 c-39 -31 -49 -63 -32 -104 38 -91 166 -65 166 34 0 32 -6
44 -31 65 -37 32 -68 33 -103 5z"/>
<path d="M1930 558 c-29 -20 -35 -30 -38 -66 -3 -35 1 -46 24 -67 31 -29 62
-32 105 -10 53 28 60 92 16 133 -36 33 -68 36 -107 10z"/>
</g>
</svg>
