<?xml version="1.0" standalone="no"?>
<!DOCTYPE svg PUBLIC "-//W3C//DTD SVG 20010904//EN"
 "http://www.w3.org/TR/2001/REC-SVG-20010904/DTD/svg10.dtd">
<svg version="1.0" xmlns="http://www.w3.org/2000/svg"
 width="17px" height="16px" viewBox="0 0 310.000000 296.000000"
 preserveAspectRatio="xMidYMid meet">

<g transform="translate(0.000000,296.000000) scale(0.100000,-0.100000)"
fill="#0c2244" stroke="none">
<path d="M163 2950 c-54 -13 -97 -44 -128 -95 -30 -48 -30 -50 -28 -180 3
-281 63 -629 159 -927 272 -841 876 -1402 1759 -1633 258 -68 547 -106 823
-108 164 -2 180 0 217 20 43 23 81 59 111 108 17 27 19 57 22 370 2 217 0 353
-7 375 -6 19 -24 52 -42 73 -49 59 -92 76 -228 87 -125 10 -299 42 -490 89
-62 15 -124 26 -137 23 -13 -2 -105 -84 -212 -187 l-189 -184 -116 74 c-323
204 -532 410 -731 719 l-57 88 190 185 c154 149 191 190 191 211 0 15 -20 98
-45 185 -55 194 -81 331 -91 462 -8 114 -17 137 -73 188 -70 63 -98 67 -505
66 -199 -1 -375 -4 -393 -9z m795 -165 c28 -23 29 -28 35 -132 7 -127 23 -214
79 -417 l41 -150 -196 -190 c-165 -160 -197 -196 -197 -219 0 -18 30 -74 86
-160 257 -392 450 -578 871 -837 146 -90 127 -97 359 131 141 138 199 189 212
185 131 -41 418 -95 559 -105 155 -11 143 18 143 -357 0 -211 -4 -321 -11
-338 -20 -43 -55 -50 -219 -42 -743 33 -1307 229 -1744 605 -490 421 -769
1058 -822 1873 -8 123 -2 155 29 168 12 5 185 9 384 9 l361 1 30 -25z"/>
</g>
</svg>
