<?xml version="1.0" standalone="no"?>
<!DOCTYPE svg PUBLIC "-//W3C//DTD SVG 20010904//EN"
 "http://www.w3.org/TR/2001/REC-SVG-20010904/DTD/svg10.dtd">
<svg version="1.0" xmlns="http://www.w3.org/2000/svg"
 width="69px" height="69px" viewBox="0 0 316.000000 317.000000"
 preserveAspectRatio="xMidYMid meet">

<g transform="translate(0.000000,317.000000) scale(0.100000,-0.100000)"
fill="#9a9b9b" stroke="none">
<path d="M2085 3155 c-5 -2 -44 -11 -85 -20 -302 -69 -580 -331 -667 -630 -54
-184 -55 -319 -6 -540 6 -28 -21 -56 -656 -685 l-662 -655 1 -307 0 -308 313
0 312 0 77 77 77 78 3 139 3 139 141 -2 c185 -3 175 -12 173 173 l-1 141 153
5 154 5 3 153 3 152 138 0 139 0 128 131 c120 121 131 130 159 125 152 -29
244 -36 335 -25 217 25 393 107 552 257 192 182 301 454 285 715 -15 248 -101
440 -275 616 -133 134 -284 216 -475 256 -59 13 -291 20 -322 10z m376 -129
c87 -26 205 -85 262 -131 184 -151 287 -325 323 -545 18 -108 18 -172 0 -257
-72 -343 -290 -579 -616 -669 -100 -28 -319 -25 -425 5 l-80 23 -130 -136
-130 -136 -165 0 c-116 0 -170 -4 -178 -12 -8 -8 -12 -58 -12 -160 l0 -147
-152 -3 -153 -3 -3 -153 -3 -152 -149 0 c-137 0 -150 -2 -160 -19 -6 -11 -10
-88 -10 -178 l0 -158 -49 -42 -50 -43 -235 0 -236 0 0 234 0 235 671 668 671
669 -16 54 c-23 75 -46 205 -46 260 0 62 24 193 50 270 96 285 344 495 650
549 94 17 273 6 371 -23z"/>
<path fill="#0c2244" d="M2349 2694 c-59 -18 -131 -81 -159 -141 -53 -110 -19 -255 77 -328
60 -46 102 -58 181 -53 151 9 254 115 255 262 1 188 -173 316 -354 260z m157
-103 c103 -47 131 -173 58 -261 -54 -64 -142 -79 -216 -38 -119 67 -110 242
16 299 52 23 90 23 142 0z"/>
<path fill="#0c2244" d="M1408 1673 c-77 -76 -89 -91 -86 -118 2 -22 10 -32 31 -39 26 -9 33
-5 117 79 96 95 108 122 68 149 -12 9 -27 16 -32 16 -4 0 -49 -39 -98 -87z"/>
<path fill="#0c2244" d="M718 983 c-380 -380 -458 -462 -458 -485 0 -30 30 -53 58 -44 9 3
223 212 475 464 475 475 467 467 434 510 -5 6 -19 12 -30 12 -15 0 -166 -144
-479 -457z"/>
</g>
</svg>
