<?xml version="1.0" standalone="no"?>
<!DOCTYPE svg PUBLIC "-//W3C//DTD SVG 20010904//EN"
 "http://www.w3.org/TR/2001/REC-SVG-20010904/DTD/svg10.dtd">
<svg version="1.0" xmlns="http://www.w3.org/2000/svg"
 width="51px" height="65px" viewBox="0 0 221.000000 279.000000"
 preserveAspectRatio="xMidYMid meet">

<g transform="translate(0.000000,279.000000) scale(0.100000,-0.100000)"
fill="#ffffff" stroke="none">
<path d="M29 2751 l-29 -29 0 -1106 0 -1106 29 -32 29 -33 449 -3 449 -3 13
-37 c36 -102 165 -249 274 -312 94 -55 199 -83 312 -83 187 -1 328 56 461 188
63 63 90 98 123 165 94 191 94 393 -1 588 -63 128 -232 273 -365 313 l-43 12
0 511 0 510 -242 243 -242 243 -594 0 -594 0 -29 -29z m1151 -264 c0 -160 3
-226 12 -235 9 -9 75 -12 235 -12 l223 0 0 -474 0 -475 -92 0 c-183 -1 -317
-58 -448 -190 -141 -142 -196 -283 -188 -479 l5 -102 -421 2 -421 3 -3 1080
c-1 594 0 1086 3 1093 3 9 123 12 550 12 l545 0 0 -223z m250 -2 l165 -165
-168 0 -167 0 0 165 c0 91 1 165 3 165 1 0 76 -74 167 -165z m305 -1296 c403
-124 527 -640 226 -940 -101 -100 -261 -169 -396 -169 -67 0 -176 28 -254 65
-142 68 -268 228 -300 383 -40 191 16 381 153 518 154 154 364 207 571 143z"/>
<path fill="#818285" d="M316 2057 c-11 -8 -17 -23 -14 -38 l3 -24 549 -3 c397 -1 553 1 562
9 18 15 18 34 -2 53 -14 14 -77 16 -548 16 -422 0 -536 -3 -550 -13z"/>
<path fill="#818285" d="M312 1838 c-7 -7 -12 -19 -12 -28 0 -40 5 -40 561 -40 475 0 539 2
553 16 19 18 19 20 6 45 -10 18 -27 19 -553 19 -409 0 -546 -3 -555 -12z"/>
<path d="M305 1620 c-12 -20 4 -57 27 -64 13 -3 255 -6 539 -6 497 0 518 1
540 19 20 16 22 23 13 38 -11 17 -42 18 -562 21 -381 1 -553 -1 -557 -8z"/>
<path d="M312 1408 c-7 -7 -12 -19 -12 -28 0 -40 5 -40 567 -40 532 0 542 0
553 20 8 14 8 26 0 40 -11 20 -21 20 -553 20 -409 0 -546 -3 -555 -12z"/>
<path d="M307 1193 c-17 -17 -6 -54 19 -63 14 -6 149 -10 309 -10 265 0 284 1
306 19 20 16 22 23 13 38 -10 17 -34 18 -326 21 -173 1 -317 -1 -321 -5z"/>
<path d="M312 978 c-7 -7 -12 -19 -12 -28 0 -37 18 -40 257 -40 219 0 233 1
243 19 13 25 13 27 -6 45 -13 14 -49 16 -243 16 -163 0 -230 -3 -239 -12z"/>
<path fill="#818285" d="M1557 792 c-97 -97 -177 -182 -177 -187 0 -13 122 -135 135 -135 5 0
89 80 187 177 116 116 178 184 178 198 0 26 -99 125 -125 125 -13 0 -87 -67
-198 -178z m96 -84 c-130 -130 -138 -137 -155 -121 -18 16 -13 23 119 155 130
130 138 137 155 121 18 -16 13 -23 -119 -155z"/>
<path fill="#818285" d="M1322 557 c-15 -18 -36 -141 -28 -162 5 -14 14 -17 49 -12 73 11 116
27 128 48 16 32 -6 52 -54 47 l-38 -4 6 34 c9 51 -34 85 -63 49z"/>
</g>
</svg>
