<?xml version="1.0" standalone="no"?>
<!DOCTYPE svg PUBLIC "-//W3C//DTD SVG 20010904//EN"
 "http://www.w3.org/TR/2001/REC-SVG-20010904/DTD/svg10.dtd">
<svg version="1.0" xmlns="http://www.w3.org/2000/svg"
 width="69px" height="69px" viewBox="0 0 299.000000 300.000000"
 preserveAspectRatio="xMidYMid meet">

<g transform="translate(0.000000,300.000000) scale(0.100000,-0.100000)"
fill="#9a9b9b" stroke="none">
<path d="M1625 2985 c-130 -15 -173 -24 -287 -65 -173 -61 -317 -153 -456
-291 -138 -138 -255 -328 -309 -504 -17 -57 -28 -70 -245 -288 -126 -125 -228
-233 -228 -240 0 -18 42 -57 61 -57 8 0 88 74 179 165 91 91 168 165 172 165
5 0 8 -42 8 -93 l0 -92 -260 -260 c-143 -143 -260 -265 -260 -272 0 -6 14 -23
31 -37 22 -19 35 -24 47 -17 9 6 114 107 232 225 118 119 218 216 222 216 3 0
14 -32 23 -72 l16 -72 -285 -285 c-158 -158 -286 -291 -286 -297 0 -13 52 -64
66 -64 5 0 128 119 274 265 173 173 268 261 275 255 6 -5 26 -41 45 -80 l34
-71 -347 -347 c-191 -191 -347 -352 -347 -358 0 -6 14 -23 32 -38 l32 -26 341
340 c187 187 344 340 348 340 3 0 25 -23 47 -52 l41 -51 -420 -421 c-232 -232
-421 -426 -421 -431 0 -13 52 -65 64 -65 6 0 200 189 431 420 l421 421 67 -52
c37 -28 67 -54 67 -58 0 -3 -149 -155 -332 -338 l-332 -332 29 -31 c16 -16 34
-30 39 -30 6 0 162 151 346 335 184 184 340 335 346 335 7 0 47 -16 89 -37
l77 -36 -266 -266 -266 -267 33 -32 c18 -18 37 -32 42 -32 6 0 136 126 290
280 l281 281 73 -16 c40 -8 83 -15 97 -15 13 0 24 -4 24 -8 0 -4 -95 -102
-210 -218 -116 -115 -216 -217 -221 -228 -9 -14 -5 -24 17 -47 15 -16 32 -29
38 -29 6 0 126 116 268 257 l257 256 97 13 c54 7 102 10 107 7 5 -3 -73 -88
-174 -189 l-183 -183 29 -31 c16 -16 35 -30 42 -30 8 0 127 113 265 250 248
248 252 251 357 305 417 215 674 634 673 1095 -1 138 -24 283 -66 401 -159
456 -577 785 -1046 824 -41 3 -88 7 -105 9 -16 2 -79 -2 -140 -9z m248 -101
c20 -4 37 -10 37 -14 0 -4 -35 -31 -79 -59 l-79 -52 -73 47 c-93 60 -98 67
-51 75 52 9 199 10 245 3z m-302 -130 l129 -86 0 -219 0 -219 -174 -131 -174
-130 -174 88 -173 88 -56 148 c-31 81 -59 157 -62 169 -12 46 191 222 348 301
82 41 170 76 193 77 7 0 71 -39 143 -86z m595 56 c81 -31 192 -93 259 -144 53
-40 195 -177 195 -188 0 -15 -112 -313 -123 -326 -6 -8 -86 -51 -178 -97
l-166 -84 -46 32 c-25 18 -102 74 -171 126 l-126 94 0 226 0 226 126 83 c69
45 132 82 139 82 8 0 48 -13 91 -30z m-1306 -573 c17 -49 30 -90 27 -93 -9 -9
-200 -55 -205 -49 -7 7 33 127 53 160 7 11 25 42 40 69 28 49 28 49 40 25 7
-13 27 -64 45 -112z m1876 76 c38 -66 95 -206 86 -215 -6 -6 -198 35 -208 45
-4 4 23 83 65 190 6 15 15 27 20 27 5 0 22 -21 37 -47z m-831 -288 c77 -58
148 -112 158 -121 21 -17 21 -20 -23 -164 -16 -52 -41 -134 -55 -182 l-26 -88
-209 0 -209 0 -11 43 c-6 23 -13 49 -16 57 -3 8 -26 82 -50 164 -41 134 -44
151 -30 165 36 35 302 230 316 230 9 1 78 -46 155 -104z m-754 -70 l165 -83
21 -74 c12 -40 39 -134 62 -210 23 -75 41 -144 41 -153 0 -10 -17 -36 -37 -59
-21 -23 -78 -89 -127 -147 l-89 -106 -86 -12 c-47 -6 -122 -17 -165 -23 l-79
-11 -24 29 c-31 38 -106 175 -132 242 -59 150 -85 336 -71 512 4 56 11 104 14
107 12 13 302 81 321 76 11 -3 95 -43 186 -88z m1554 56 l150 -39 12 -48 c16
-72 15 -240 -3 -346 -27 -161 -100 -342 -180 -452 -35 -47 -37 -48 -77 -41
-23 3 -80 11 -127 16 -171 20 -150 7 -293 174 -146 170 -138 140 -86 310 17
55 42 138 57 185 14 47 30 91 35 97 8 11 345 184 357 183 3 -1 73 -18 155 -39z
m-643 -748 c142 -165 168 -197 168 -213 0 -19 -76 -326 -84 -339 -8 -13 -83
-37 -176 -57 -112 -23 -340 -21 -456 4 -50 11 -107 27 -126 35 l-34 15 -43
171 c-49 197 -55 169 56 297 37 44 88 103 112 132 l45 52 227 0 227 0 84 -97z
m-867 -348 c12 -49 25 -102 29 -117 9 -40 -5 -36 -98 26 -108 73 -196 152
-176 160 23 9 151 24 189 22 l34 -1 22 -90z m1260 85 c49 -6 93 -14 98 -19 16
-16 -233 -211 -271 -211 -8 0 -11 7 -8 18 10 35 56 212 56 217 0 7 23 6 125
-5z"/>
</g>
</svg>
