<?xml version="1.0" standalone="no"?>
<!DOCTYPE svg PUBLIC "-//W3C//DTD SVG 20010904//EN"
 "http://www.w3.org/TR/2001/REC-SVG-20010904/DTD/svg10.dtd">
<svg version="1.0" xmlns="http://www.w3.org/2000/svg"
 width="71px" height="71px" viewBox="0 0 280.000000 280.000000"
 preserveAspectRatio="xMidYMid meet">
<metadata>
Created by potrace 1.14, written by Peter Selinger 2001-2017
</metadata>
<g transform="translate(0.000000,280.000000) scale(0.100000,-0.100000)"
fill="#6a6a6a" stroke="none">
<path fill="#0c2244" d="M1290 2775 c-196 -61 -322 -255 -290 -448 20 -124 107 -245 216 -300
248 -125 545 29 584 304 34 241 -160 461 -404 458 -34 0 -81 -7 -106 -14z
m205 -96 c129 -33 225 -178 212 -321 -10 -109 -72 -199 -171 -248 -135 -67
-303 -25 -385 94 -108 157 -63 362 98 450 80 43 147 50 246 25z"/>
<path d="M422 2285 c-220 -61 -306 -319 -166 -502 59 -77 182 -130 279 -117
108 13 201 79 253 179 38 72 38 186 1 266 -66 140 -222 214 -367 174z m173
-104 c149 -68 175 -267 50 -373 -66 -56 -191 -63 -264 -15 -144 96 -130 318
24 388 52 24 138 24 190 0z"/>
<path d="M2233 2290 c-90 -18 -178 -88 -224 -178 -35 -69 -34 -185 2 -263 114
-243 451 -246 569 -5 91 184 -16 402 -218 445 -59 12 -69 12 -129 1z m162
-109 c72 -33 125 -114 125 -192 0 -133 -91 -228 -218 -229 -66 0 -116 21 -165
68 -103 101 -74 282 56 347 62 31 143 33 202 6z"/>
<path d="M1099 1876 c-154 -58 -257 -180 -279 -333 -5 -37 -10 -215 -10 -395
l0 -328 90 0 90 0 0 -405 0 -405 405 0 405 0 2 402 3 403 88 3 88 3 -3 387 -3
387 -31 65 c-39 83 -111 155 -194 194 l-65 31 -275 2 c-209 2 -284 -1 -311
-11z m615 -106 c62 -32 118 -88 148 -148 22 -46 23 -55 26 -379 l3 -333 -91 0
-90 0 0 -405 0 -405 -130 0 -130 0 0 316 0 315 -47 -3 -48 -3 -3 -312 -2 -313
-130 0 -130 0 0 405 0 405 -91 0 -90 0 3 328 c3 317 4 329 26 378 31 68 95
129 168 160 58 24 63 24 309 22 244 -3 251 -4 299 -28z"/>
<path d="M229 1556 c-98 -40 -162 -106 -199 -202 -19 -51 -20 -77 -20 -384 l0
-330 65 0 65 0 2 -312 3 -313 338 -3 337 -2 0 315 0 315 45 0 45 0 0 45 0 46
-92 -3 -93 -3 -3 -312 -2 -313 -85 0 -85 0 0 225 0 225 -45 0 -45 0 0 -225 0
-225 -110 0 -110 0 0 315 0 315 -64 0 -63 0 -7 92 c-10 143 -7 422 5 478 14
66 62 127 124 159 47 25 58 26 270 31 l220 5 3 43 3 42 -223 0 c-210 0 -226
-2 -279 -24z"/>
<path d="M2070 1536 l0 -45 223 -3 c245 -3 266 -8 332 -73 59 -60 69 -94 73
-264 2 -85 1 -215 -3 -288 l-7 -133 -64 0 -64 0 0 -315 0 -315 -110 0 -110 0
0 225 0 225 -45 0 -45 0 0 -225 0 -225 -85 0 -85 0 -2 313 -3 312 -92 3 -93 3
0 -46 0 -45 45 0 45 0 0 -315 0 -315 340 0 340 0 0 315 0 315 65 0 66 0 -3
343 -3 342 -26 56 c-34 72 -96 134 -168 168 -55 25 -61 26 -288 29 l-233 3 0
-45z"/>
</g>
</svg>
