<?xml version="1.0" standalone="no"?>
<!DOCTYPE svg PUBLIC "-//W3C//DTD SVG 20010904//EN"
 "http://www.w3.org/TR/2001/REC-SVG-20010904/DTD/svg10.dtd">
<svg version="1.0" xmlns="http://www.w3.org/2000/svg"
 width="8px" height="11px" viewBox="0 0 234.000000 328.000000"
 preserveAspectRatio="xMidYMid meet">

<g transform="translate(0.000000,328.000000) scale(0.100000,-0.100000)"
fill="#0c2244" stroke="none">
<path d="M960 3264 c-119 -19 -282 -73 -380 -125 -300 -161 -481 -425 -557
-814 -27 -140 -24 -427 5 -565 78 -362 280 -764 601 -1195 184 -246 424 -520
483 -551 35 -18 81 -18 116 0 59 31 299 305 483 551 321 431 523 834 600 1195
33 151 33 427 1 586 -98 490 -400 805 -867 906 -124 26 -359 32 -485 12z m505
-308 c287 -87 471 -288 550 -602 102 -402 4 -800 -328 -1324 -119 -187 -349
-492 -476 -630 l-41 -45 -46 50 c-136 148 -352 437 -483 645 -92 146 -229 425
-275 556 -58 170 -78 281 -79 434 0 153 14 259 50 375 95 304 309 493 633 561
44 9 119 12 235 10 150 -3 180 -6 260 -30z"/>
<path fill="#818285" d="M1021 2644 c-168 -45 -313 -182 -381 -359 -28 -75 -39 -239 -20 -324
46 -212 226 -392 437 -436 86 -18 140 -18 225 0 213 45 392 223 438 436 20 89
8 249 -23 331 -67 174 -212 308 -382 353 -74 19 -222 19 -294 -1z"/>
</g>
</svg>
